<svg xmlns="http://www.w3.org/2000/svg" version="1.1" xmlns:xlink="http://www.w3.org/1999/xlink" xmlns:svgjs="http://svgjs.dev/svgjs" width="1000" height="1000" viewBox="0 0 1000 1000"><g transform="matrix(1,0,0,1,0,0)"><svg viewBox="0 0 280 280" data-background-color="#ffffff" preserveAspectRatio="xMidYMid meet" height="1000" width="1000" xmlns="http://www.w3.org/2000/svg" xmlns:xlink="http://www.w3.org/1999/xlink"><g id="tight-bounds" transform="matrix(1,0,0,1,0,0)"><svg viewBox="0 0 280 280" height="280" width="280"><g><svg viewBox="0 0 280 280" height="280" width="280"><g><svg viewBox="0 0 280 280" height="280" width="280"><g id="textblocktransform"><svg viewBox="0 0 280 280" height="280" width="280" id="textblock"><g><svg viewBox="0 0 280 280" height="280" width="280"><g transform="matrix(1,0,0,1,90.50252531694167,93.9175173324455)"><svg viewBox="0 0 98.99494936611666 92.164965335109" height="92.164965335109" width="98.99494936611666"><g><svg xmlns="http://www.w3.org/2000/svg" xmlns:xlink="http://www.w3.org/1999/xlink" version="1.1" x="0" y="0" viewBox="4.999038219451904 8.103681564331055 90.00115203857422 83.79167938232422" enable-background="new 0 0 100 100" xml:space="preserve" height="92.164965335109" width="98.99494936611666" class="icon-o-0" data-fill-palette-color="accent" id="o-0"><g fill="#ff0000" data-fill-palette-color="accent"><path d="M52.373 39.654c-0.014-0.001-0.027-0.003-0.042-0.004-0.256-0.032-0.512-0.058-0.768-0.081-0.165-0.014-0.33-0.027-0.496-0.038-0.171-0.009-0.341-0.016-0.511-0.021-0.184-0.006-0.37-0.01-0.556-0.01s-0.372 0.004-0.555 0.01c-0.171 0.005-0.341 0.012-0.512 0.021-0.166 0.01-0.331 0.023-0.496 0.038-0.256 0.022-0.512 0.048-0.768 0.081-0.014 0.001-0.027 0.003-0.042 0.004-7.878 0.987-16.235 6.746-21.661 15.839-8.038 13.47-6.596 29.139 3.222 34.998 6.037 3.602 12.564-0.862 20.812-0.862s14.776 4.464 20.812 0.862c9.818-5.859 11.26-21.528 3.222-34.998C68.608 46.4 60.251 40.641 52.373 39.654z" fill="#ff0000" data-fill-palette-color="accent"></path><path d="M23.074 36.857c-2.769-7.241-8.748-11.427-13.355-9.35-4.607 2.077-6.097 9.63-3.327 16.869 2.77 7.241 8.749 11.427 13.355 9.352C24.354 51.651 25.843 44.099 23.074 36.857z" fill="#ff0000" data-fill-palette-color="accent"></path><path d="M39.874 35.54c4.766-1.596 6.903-8.963 4.774-16.455-2.129-7.492-7.718-12.27-12.486-10.674-4.765 1.596-6.904 8.965-4.773 16.456C29.518 32.358 35.107 37.137 39.874 35.54z" fill="#ff0000" data-fill-palette-color="accent"></path><path d="M90.28 27.507c-4.606-2.077-10.586 2.109-13.355 9.35s-1.28 14.794 3.327 16.871c4.606 2.076 10.585-2.111 13.355-9.352C96.377 37.137 94.888 29.584 90.28 27.507z" fill="#ff0000" data-fill-palette-color="accent"></path><path d="M60.126 35.54c4.767 1.596 10.356-3.182 12.485-10.673 2.131-7.492-0.008-14.86-4.773-16.456-4.767-1.596-10.356 3.182-12.486 10.674C53.222 26.577 55.36 33.944 60.126 35.54z" fill="#ff0000" data-fill-palette-color="accent"></path></g></svg></g></svg></g><g><path d="M32.509 100.023c-0.997 2.72-2.424 4.887-4.281 6.499-1.857 1.612-3.998 2.587-6.421 2.924-2.427 0.328-4.979 0.002-7.656-0.979v0c-2.677-0.981-4.829-2.378-6.458-4.192-1.62-1.818-2.618-3.942-2.994-6.373-0.376-2.431-0.066-5.006 0.931-7.727v0c0.629-1.716 1.498-3.276 2.607-4.681 1.103-1.408 2.275-2.461 3.514-3.16v0l4.051 3.893c-2.299 1.599-3.862 3.528-4.689 5.787v0c-0.779 2.128-0.705 4.002 0.222 5.623 0.921 1.619 2.708 2.914 5.36 3.885v0c2.652 0.972 4.858 1.139 6.62 0.504 1.768-0.633 3.041-2.014 3.821-4.141v0c0.828-2.259 0.881-4.741 0.159-7.447v0l5.608-0.355c0.495 1.335 0.708 2.896 0.641 4.682-0.061 1.789-0.406 3.542-1.035 5.258z" fill="#ffffff" data-fill-palette-color="primary"></path><path d="M47.821 60.044l8.978 1.303-4.869 6.34-10.011-1.594c-1.185-0.148-2.18 0.303-2.986 1.352v0l-1.348 1.755 8.293 6.368-4.365 5.684-22.135-16.998 8.104-10.554c2.056-2.677 4.182-4.245 6.378-4.704 2.201-0.455 4.4 0.162 6.597 1.85v0c1.676 1.287 2.742 2.834 3.197 4.641 0.451 1.813 0.234 3.711-0.653 5.694v0c1.253-1.065 2.86-1.444 4.82-1.137zM36.288 61.92c0.983-1.281 1.49-2.349 1.52-3.206 0.024-0.861-0.411-1.635-1.307-2.323v0c-0.922-0.708-1.799-0.942-2.63-0.7-0.836 0.238-1.746 0.997-2.729 2.277v0l-3.084 4.016 5.146 3.952z" fill="#ffffff" data-fill-palette-color="primary"></path><path d="M63.532 22.166l6.879-4.595-1.217 19.427 6.904 10.336-6.06 4.047-6.903-10.336-18.336-6.368 6.813-4.551 11.313 4.107z" fill="#ffffff" data-fill-palette-color="primary"></path><path d="M93.087 37.338l-9.026-26.408 12.78-4.368c2.918-0.997 5.441-1.031 7.57-0.102 2.138 0.934 3.659 2.724 4.564 5.371v0c0.896 2.622 0.779 4.962-0.35 7.019-1.123 2.055-3.131 3.577-6.024 4.566v0l-5.885 2.012 3.265 9.554zM94.949 20.259l4.943-1.689c1.276-0.436 2.13-1.02 2.562-1.75 0.429-0.737 0.457-1.652 0.083-2.746v0c-0.376-1.1-0.962-1.817-1.757-2.149-0.793-0.326-1.827-0.271-3.103 0.165v0l-4.942 1.689z" fill="#ffffff" data-fill-palette-color="primary"></path><path d="M139.409 28.165l-7.352 0.239-0.714-21.997-8.349 0.271-0.191-5.897 24.048-0.781 0.192 5.898-8.348 0.271z" fill="#ffffff" data-fill-palette-color="primary"></path><path d="M180.432 27.07l2.291 8.778-7.734-2.02-2.425-9.844c-0.325-1.149-1.127-1.891-2.406-2.225v0l-2.141-0.559-2.643 10.116-6.934-1.811 7.054-27.003 12.874 3.363c3.266 0.853 5.537 2.202 6.814 4.046 1.275 1.851 1.562 4.117 0.862 6.798v0c-0.534 2.045-1.545 3.628-3.034 4.75-1.495 1.121-3.328 1.658-5.5 1.613v0c1.469 0.741 2.443 2.073 2.922 3.998zM174.219 17.175c1.562 0.408 2.744 0.459 3.545 0.153 0.803-0.312 1.347-1.015 1.632-2.108v0c0.294-1.125 0.168-2.023-0.377-2.695-0.544-0.678-1.597-1.221-3.16-1.629v0l-4.899-1.279-1.64 6.278z" fill="#ffffff" data-fill-palette-color="primary"></path><path d="M215.141 56.233l-6.002-3.988 1.123-6.194-10.286-6.835-5.283 3.431-6.093-4.049 26.287-16.041 4.815 3.199zM213.092 30.626l-8.15 5.332 6.392 4.247z" fill="#ffffff" data-fill-palette-color="primary"></path><path d="M229.753 72.886c-1.862-2.22-3.029-4.537-3.501-6.951-0.472-2.414-0.25-4.755 0.666-7.024 0.925-2.268 2.48-4.318 4.664-6.149v0c2.184-1.832 4.468-3.002 6.852-3.51 2.383-0.498 4.722-0.305 7.017 0.58 2.295 0.885 4.373 2.438 6.235 4.658v0c1.174 1.4 2.094 2.931 2.76 4.593 0.671 1.658 1 3.198 0.988 4.622v0l-5.394 1.572c-0.241-2.79-1.135-5.106-2.681-6.95v0c-1.456-1.736-3.118-2.606-4.985-2.609-1.862-0.008-3.876 0.896-6.04 2.711v0c-2.164 1.815-3.409 3.644-3.735 5.488-0.332 1.848 0.23 3.64 1.686 5.376v0c1.546 1.843 3.671 3.126 6.377 3.849v0l-2.487 5.039c-1.404-0.236-2.863-0.829-4.379-1.778-1.521-0.945-2.868-2.117-4.043-3.517z" fill="#ffffff" data-fill-palette-color="primary"></path><path d="M260.49 97.817l-8.774 17.326-3.25-7.996 7.467-15.171-11.7 4.755-2.743-6.751 25.856-10.507 2.743 6.751-11.109 4.514 15.221 5.606 3.205 7.886z" fill="#ffffff" data-fill-palette-color="primary"></path><path d="M13.525 195.756c-1.014-2.757-1.332-5.365-0.956-7.826 0.377-2.461 1.393-4.615 3.05-6.464 1.657-1.848 3.838-3.27 6.545-4.265v0c2.707-0.995 5.284-1.324 7.73-0.985 2.447 0.339 4.611 1.324 6.492 2.954 1.881 1.63 3.329 3.824 4.343 6.581v0c0.638 1.734 0.992 3.505 1.061 5.313 0.066 1.816-0.151 3.401-0.652 4.753v0l-5.674-0.356c0.725-2.745 0.668-5.258-0.171-7.541v0c-0.794-2.158-2.077-3.559-3.85-4.202-1.779-0.641-4.01-0.469-6.692 0.517v0c-2.682 0.986-4.499 2.302-5.451 3.949-0.946 1.644-1.022 3.544-0.229 5.702v0c0.839 2.283 2.425 4.234 4.755 5.855v0l-4.092 3.947c-1.258-0.706-2.45-1.772-3.576-3.198-1.118-1.423-1.996-3.001-2.633-4.734z" fill="#ffffff" data-fill-palette-color="primary"></path><path d="M45.089 230.959l-3.618 8.455-4.941-6.422 4.165-9.38c0.454-1.121 0.274-2.21-0.541-3.268v0l-1.367-1.778-8.39 6.455-4.431-5.759 22.404-17.237 8.217 10.68c2.087 2.712 3.068 5.202 2.943 7.47-0.126 2.277-1.3 4.27-3.523 5.98v0c-1.696 1.305-3.49 1.943-5.381 1.915-1.892-0.029-3.693-0.735-5.403-2.119v0c0.719 1.501 0.674 3.17-0.134 5.008zM46.246 219.19c0.997 1.296 1.913 2.066 2.748 2.313 0.834 0.256 1.706 0.033 2.618-0.668v0c0.932-0.717 1.387-1.516 1.364-2.396-0.013-0.878-0.519-1.965-1.516-3.261v0l-3.124-4.06-5.214 4.012z" fill="#ffffff" data-fill-palette-color="primary"></path><path d="M83.982 236.064l6.975 4.65-18.641 6.417-6.983 10.475-6.137-4.092 6.983-10.474-1.173-19.625 6.9 4.6 0.553 12.18z" fill="#ffffff" data-fill-palette-color="primary"></path><path d="M86.638 269.745l9.142-26.748 12.941 4.423c2.962 1.012 5.006 2.55 6.133 4.614 1.132 2.072 1.24 4.448 0.324 7.126v0c-0.907 2.653-2.45 4.457-4.63 5.411-2.172 0.95-4.726 0.923-7.662-0.08v0l-5.952-2.034-3.307 9.677zM98.723 257.222l5.009 1.712c1.289 0.441 2.332 0.502 3.128 0.185 0.805-0.322 1.398-1.039 1.779-2.152v0c0.38-1.113 0.352-2.046-0.086-2.8-0.429-0.758-1.288-1.357-2.578-1.797v0l-5.008-1.712z" fill="#ffffff" data-fill-palette-color="primary"></path><path d="M138.773 280l-7.452-0.245 0.732-22.285-8.458-0.278 0.196-5.967 24.367 0.8-0.196 5.968-8.457-0.278z" fill="#ffffff" data-fill-palette-color="primary"></path><path d="M181.375 265.051l6.372 6.633-7.843 2.041-7.008-7.497c-0.854-0.856-1.928-1.115-3.22-0.779v0l-2.171 0.565 2.666 10.244-7.032 1.83-7.119-27.357 13.042-3.394c3.312-0.862 5.987-0.792 8.026 0.209 2.047 1.005 3.423 2.865 4.129 5.578v0c0.539 2.071 0.426 3.971-0.339 5.702-0.765 1.73-2.119 3.112-4.06 4.146v0c1.663-0.076 3.182 0.617 4.557 2.079zM170.993 259.39c1.582-0.412 2.649-0.954 3.202-1.627 0.561-0.668 0.697-1.558 0.407-2.67v0c-0.296-1.138-0.854-1.869-1.672-2.191-0.814-0.331-2.012-0.29-3.594 0.121v0l-4.958 1.291 1.657 6.366z" fill="#ffffff" data-fill-palette-color="primary"></path><path d="M226.044 248.63l-6.081 4.032-5.344-3.477-10.425 6.913 1.132 6.27-6.18 4.099-4.632-30.847 4.876-3.233zM201.341 240.469l1.765 9.714 6.487-4.303z" fill="#ffffff" data-fill-palette-color="primary"></path><path d="M245.226 228.86c-1.891 2.248-3.998 3.818-6.321 4.712-2.323 0.894-4.698 1.08-7.125 0.558-2.427-0.522-4.743-1.711-6.951-3.567v0c-2.207-1.856-3.77-3.931-4.689-6.224-0.919-2.293-1.138-4.66-0.655-7.103 0.483-2.442 1.669-4.787 3.56-7.035v0c1.189-1.414 2.551-2.599 4.086-3.557 1.544-0.959 3.028-1.556 4.451-1.792v0l2.506 5.104c-2.743 0.732-4.897 2.028-6.463 3.89v0c-1.48 1.759-2.06 3.569-1.739 5.427 0.326 1.863 1.582 3.714 3.768 5.554v0c2.187 1.839 4.231 2.764 6.133 2.774 1.896 0.006 3.585-0.87 5.064-2.63v0c1.566-1.861 2.474-4.206 2.725-7.033v0l5.458 1.595c0.011 1.442-0.323 3.006-1.003 4.692-0.681 1.676-1.616 3.221-2.805 4.635z" fill="#ffffff" data-fill-palette-color="primary"></path><path d="M251.265 187.187l18.611-6.343-3.305 8.093-16.142 5.704 11.84 4.834-2.792 6.838-26.171-10.686 2.792-6.838 11.249 4.593-7.066-14.836 3.259-7.982z" fill="#ffffff" data-fill-palette-color="primary"></path><path d="M2.594 144.294c0-5.964 4.835-10.798 10.798-10.799 5.964 0 10.798 4.835 10.799 10.799 0 5.964-4.835 10.798-10.799 10.798-5.964 0-10.798-4.835-10.798-10.798z" fill="#ffffff" data-fill-palette-color="primary"></path><path d="M253.778 144.294c0-5.964 4.835-10.798 10.799-10.799 5.964 0 10.798 4.835 10.798 10.799 0 5.964-4.835 10.798-10.798 10.798-5.964 0-10.798-4.835-10.799-10.798z" fill="#ffffff" data-fill-palette-color="primary"></path></g></svg></g></svg></g></svg></g></svg></g><defs></defs></svg><rect width="280" height="280" fill="none" stroke="none" visibility="hidden"></rect></g></svg></g></svg>